<svg viewBox="0 0 1584 396" xmlns="http://www.w3.org/2000/svg"><defs><linearGradient id="g" x1="0" y1="0" x2="1" y2="1"><stop offset="0" stop-color="#50E6FF"></stop><stop offset="0.45" stop-color="#0078D4"></stop><stop offset="1" stop-color="#15B392"></stop></linearGradient><linearGradient id="bg" x1="0" y1="0" x2="1" y2="1"><stop offset="0" stop-color="#0B1B2E"></stop><stop offset="1" stop-color="#102A47"></stop></linearGradient><pattern id="dots" width="34" height="34" patternUnits="userSpaceOnUse"><circle cx="2" cy="2" r="2" fill="#1B3A5C"></circle></pattern></defs><rect width="1584" height="396" fill="url(#bg)"></rect><rect width="1584" height="396" fill="url(#dots)" opacity="0.55"></rect><polyline points="1010,300 1080,250 1150,272 1220,196 1290,224 1360,150 1430,176 1500,104" fill="none" stroke="url(#g)" stroke-width="3.5" opacity="0.5" stroke-linecap="round" stroke-linejoin="round"></polyline><g opacity="0.6"><circle cx="1010" cy="300" r="5" fill="#50E6FF"></circle><circle cx="1080" cy="250" r="5" fill="#0078D4"></circle><circle cx="1150" cy="272" r="5" fill="#0078D4"></circle><circle cx="1220" cy="196" r="5" fill="#0078D4"></circle><circle cx="1290" cy="224" r="5" fill="#15B392"></circle><circle cx="1360" cy="150" r="5" fill="#15B392"></circle><circle cx="1430" cy="176" r="5" fill="#15B392"></circle><circle cx="1500" cy="104" r="5" fill="#15B392"></circle></g><g transform="translate(250,118) scale(0.310)"><rect width="512" height="512" rx="116" fill="#0B1B2E"></rect><rect x="14" y="14" width="484" height="484" rx="104" fill="none" stroke="#1B3A5C" stroke-width="3"></rect><path d="M 366 168 L 230 168 Q 176 168 176 220 Q 176 256 230 256 L 290 256 Q 344 256 344 308 Q 344 344 290 344 L 150 344" fill="none" stroke="url(#g)" stroke-width="22" stroke-linecap="round" stroke-linejoin="round"></path><circle cx="366" cy="168" r="20" fill="#0B1B2E" stroke="url(#g)" stroke-width="10"></circle><circle cx="150" cy="344" r="20" fill="#0B1B2E" stroke="url(#g)" stroke-width="10"></circle><circle cx="256" cy="256" r="11" fill="#50E6FF"></circle></g><text x="440" y="170" font-family="Space Grotesk, sans-serif" font-weight="700" font-size="76" letter-spacing="-2" fill="#F8FAFC">Sami Mawass</text><rect x="444" y="198" width="64" height="5" rx="2.5" fill="url(#g)"></rect><text x="444" y="248" font-family="IBM Plex Mono, monospace" font-weight="500" font-size="22" letter-spacing="1.5" fill="#50E6FF">ANALYTICS ENGINEER · MICROSOFT POWER BI &amp; FABRIC SPECIALIST</text><text x="444" y="292" font-family="IBM Plex Mono, monospace" font-weight="400" font-size="21" letter-spacing="2" fill="#94A3B8">Power BI · Power Query/M · DAX · SQL · Microsoft Fabric</text></svg>