<svg viewBox="0 0 900 512" xmlns="http://www.w3.org/2000/svg">
<defs><linearGradient id="g" x1="0" y1="0" x2="1" y2="1">
<stop offset="0" stop-color="#50E6FF"></stop><stop offset=".45" stop-color="#0078D4"></stop><stop offset="1" stop-color="#15B392"></stop>
</linearGradient></defs>
<rect width="900" height="512" rx="116" fill="#0B1B2E"></rect>

<path d="M260 176 L150 176 Q110 176 110 216 Q110 252 150 252 L200 252 Q250 252 250 296 Q250 332 200 332 L96 332" fill="none" stroke="url(#g)" stroke-width="20" stroke-linecap="round" stroke-linejoin="round"></path>
<circle cx="260" cy="176" r="13" fill="#0B1B2E" stroke="url(#g)" stroke-width="10"></circle>
<circle cx="96" cy="332" r="13" fill="#0B1B2E" stroke="url(#g)" stroke-width="10"></circle>

<path d="M310 332 L393 164 L476 332" fill="none" stroke="url(#g)" stroke-width="20" stroke-linecap="round" stroke-linejoin="round"></path>
<line x1="334" y1="265" x2="452" y2="265" stroke="url(#g)" stroke-width="20" stroke-linecap="round"></line>
<circle cx="310" cy="332" r="13" fill="#0B1B2E" stroke="url(#g)" stroke-width="10"></circle>
<circle cx="476" cy="332" r="13" fill="#0B1B2E" stroke="url(#g)" stroke-width="10"></circle>

<path d="M536 336 L536 176 L636 284 L736 176 L736 336" fill="none" stroke="url(#g)" stroke-width="20" stroke-linecap="round" stroke-linejoin="round"></path>
<circle cx="536" cy="336" r="13" fill="#0B1B2E" stroke="url(#g)" stroke-width="10"></circle>
<circle cx="736" cy="336" r="13" fill="#0B1B2E" stroke="url(#g)" stroke-width="10"></circle>
<circle cx="636" cy="284" r="9" fill="#0078D4"></circle>
</svg>